#!OML:ASF G:\JayActor3\Patient Classification 1\Patient 1\Session 6\male.ASF
:FULLY-SPECIFIED
:DEGREES
670
root 4.61309 15.9295 -21.6463 183.572 -52.5026 -193.744
lowerback 0.532112 -2.78075 -0.793138
upperback 7.66283 -4.2172 1.62206
thorax 7.89957 -2.36897 1.84958
lowerneck -1.17613 -0.410234 1.97162
upperneck 8.12989 -0.145219 -13.1771
head 2.56842 -0.641179 -4.32653
rclavicle -9.14409e-015 -3.81667e-014
rhumerus -21.7149 6.60455 -78.4196
rradius 82.1019
rwrist 15.3314
rhand -17.6483 -18.6926
rfingers 7.12502
rthumb 8.60979 -48.497
lclavicle -9.14409e-015 -3.81667e-014
lhumerus -17.3548 11.5274 72.6512
lradius 55.0923
lwrist 33.6283
lhand -21.4706 9.38447
lfingers 7.12502
lthumb 4.91997 39.3074
rfemur -26.8905 12.883 5.51143
rtibia 45.1604
rfoot -16.8171 -5.58303
rtoes -13.5905
lfemur 8.23304 16.4984 -29.6462
ltibia 19.993
lfoot -16.4658 -6.76129
ltoes 9.44493
671
root 4.5874 15.9428 -21.6921 183.807 -53.291 -193.891
lowerback 0.452321 -2.77329 -0.709254
upperback 7.62339 -4.20441 1.65816
thorax 7.89916 -2.35473 1.83881
lowerneck -1.39157 -0.672716 1.64483
upperneck 8.52549 -0.475641 -12.3991
head 2.70232 -0.800502 -4.04602
rclavicle -3.73715e-014 4.13472e-014
rhumerus -22.0092 6.50224 -78.4025
rradius 81.8695
rwrist 14.7788
rhand -17.4843 -18.8697
rfingers 7.12502
rthumb 8.76799 -48.6676
lclavicle -3.73715e-014 4.13472e-014
lhumerus -17.3909 10.7498 73.5529
lradius 54.8947
lwrist 33.1143
lhand -20.9891 9.20925
lfingers 7.12502
lthumb 5.38484 39.1208
rfemur -26.5253 12.7422 5.57674
rtibia 45.139
rfoot -16.9684 -6.42093
rtoes -13.5874
lfemur 8.34053 16.091 -29.4991
ltibia 20.02
lfoot -16.231 -7.00283
ltoes 9.25579
672
root 4.56399 15.9556 -21.7404 184.021 -54.0648 -193.99
lowerback 0.365197 -2.75373 -0.65979
upperback 7.58121 -4.17448 1.70384
thorax 7.90272 -2.33461 1.85805
lowerneck -1.5898 -0.960277 1.28185
upperneck 8.65131 -0.897215 -11.2375
head 3.06306 -0.959397 -4.05452
rclavicle 5.1684e-014 6.36111e-015
rhumerus -22.2959 6.45974 -78.3714
rradius 81.6208
rwrist 14.1606
rhand -17.2644 -19.032
rfingers 7.12502
rthumb 8.9802 -48.8209
lclavicle 5.1684e-014 6.36111e-015
lhumerus -17.473 9.99054 74.4488
lradius 54.6901
lwrist 32.5469
lhand -20.3494 9.05091
lfingers 7.12502
lthumb 6.0025 38.9459
rfemur -26.1936 12.5702 5.69424
rtibia 45.1429
rfoot -17.1211 -7.15817
rtoes -13.3841
lfemur 8.39293 15.7301 -29.2897
ltibia 20.107
lfoot -16.0266 -7.29973
ltoes 9.04768
673
root 4.54321 15.9673 -21.7911 184.212 -54.8144 -194.035
lowerback 0.280377 -2.7224 -0.642587
upperback 7.53136 -4.12739 1.75806
thorax 7.89894 -2.30827 1.9058
lowerneck -1.78676 -1.26817 0.921
upperneck 8.99722 -1.30324 -10.3813
head 3.18519 -1.14864 -3.70173
rclavicle 1.35174e-014 -5.08889e-014
rhumerus -22.5687 6.48811 -78.3346
rradius 81.3509
rwrist 13.4629
rhand -17.0473 -19.2084
rfingers 7.12502
rthumb 9.18971 -48.9881
lclavicle 1.35174e-014 -5.08889e-014
lhumerus -17.6029 9.2582 75.3241
lradius 54.474
lwrist 31.9501
lhand -19.5503 8.94351
lfingers 7.12502
lthumb 6.77391 38.8152
rfemur -25.9016 12.3761 5.86256
rtibia 45.1724
rfoot -17.2969 -7.77245
rtoes -12.9913
lfemur 8.38356 15.4064 -29.0224
ltibia 20.2547
lfoot -15.8623 -7.63712
ltoes 8.80265
674
root 4.52446 15.977 -21.844 184.369 -55.5259 -194.037
lowerback 0.212468 -2.67586 -0.653585
upperback 7.47656 -4.05835 1.81241
thorax 7.8809 -2.2729 1.97207
lowerneck -1.95127 -1.59653 0.55605
upperneck 9.30468 -1.74741 -9.48574
head 3.2922 -1.35147 -3.34007
rclavicle 6.08281e-014 -7.31528e-014
rhumerus -22.8312 6.57883 -78.2945
rradius 81.0559
rwrist 12.7198
rhand -16.8666 -19.426
rfingers 7.12502
rthumb 9.36402 -49.1981
lclavicle 6.08281e-014 -7.31528e-014
lhumerus -17.7841 8.55827 76.1662
lradius 54.2428
lwrist 31.3492
lhand -18.6222 8.92558
lfingers 7.12502
lthumb 7.66982 38.7665
rfemur -25.6368 12.1745 6.07078
rtibia 45.2271
rfoot -17.5069 -8.27148
rtoes -12.4776
lfemur 8.33994 15.1204 -28.7087
ltibia 20.4459
lfoot -15.7485 -7.99518
ltoes 8.50582
675
root 4.50743 15.9845 -21.8988 184.522 -56.2038 -194.034
lowerback 0.163497 -2.61769 -0.700158
upperback 7.41988 -3.971 1.85385
thorax 7.85021 -2.23024 2.04705
lowerneck -2.0732 -1.9427 0.196082
upperneck 9.5603 -2.22678 -8.56203
head 3.37897 -1.56631 -2.97456
rclavicle 7.35503e-014 -1.90833e-014
rhumerus -23.1047 6.75618 -78.2439
rradius 80.7665
rwrist 11.8956
rhand -16.7315 -19.6698
rfingers 7.12502
rthumb 9.49442 -49.4359
lclavicle 7.35503e-014 -1.90833e-014
lhumerus -18.0041 7.90325 76.9619
lradius 53.9856
lwrist 30.7745
lhand -17.5843 9.00686
lfingers 7.12502
lthumb 8.6715 38.8088
rfemur -25.3967 11.9547 6.28848
rtibia 45.307
rfoot -17.7458 -8.67623
rtoes -11.9167
lfemur 8.27855 14.8565 -28.3813
ltibia 20.6579
lfoot -15.6798 -8.36047
ltoes 8.19083
676
root 4.49197 15.9896 -21.9547 184.69 -56.8737 -194.054
lowerback 0.136777 -2.55736 -0.779348
upperback 7.36151 -3.8777 1.8754
thorax 7.8049 -2.18583 2.121
lowerneck -2.14863 -2.30336 -0.150691
upperneck 9.76102 -2.73641 -7.62315
head 3.44489 -1.79148 -2.61066
rclavicle -5.1684e-015 4.77083e-015
rhumerus -23.34 6.95295 -78.2072
rradius 80.4431
rwrist 11.0835
rhand -16.6343 -19.9044
rfingers 7.12502
rthumb 9.58824 -49.6662
lclavicle -5.1684e-015 4.77083e-015
lhumerus -18.2586 7.28805 77.7013
lradius 53.696
lwrist 30.2669
lhand -16.484 9.19143
lfingers 7.12502
lthumb 9.73326 38.9465
rfemur -25.1741 11.6943 6.49804
rtibia 45.4106
rfoot -17.9982 -9.0197
rtoes -11.3797
lfemur 8.21594 14.592 -28.0591
ltibia 20.8666
lfoot -15.6474 -8.72871
ltoes 7.89173
677
root 4.47678 15.9921 -22.0117 184.85 -57.533 -194.086
lowerback 0.12738 -2.49524 -0.867226
upperback 7.31473 -3.78119 1.87417
thorax 7.76047 -2.13991 2.17667
lowerneck -2.18258 -2.67708 -0.484406
upperneck 9.90274 -3.27318 -6.67393
head 3.49044 -2.02629 -2.2495
rclavicle -1.82882e-014 3.49861e-014
rhumerus -23.5584 7.19986 -78.1707
rradius 80.1158
rwrist 10.2769
rhand -16.5705 -20.133
rfingers 7.12502
rthumb 9.64972 -49.892
lclavicle -1.82882e-014 3.49861e-014
lhumerus -18.5349 6.74196 78.3807
lradius 53.3695
lwrist 29.8483
lhand -15.3571 9.49108
lfingers 7.12502
lthumb 10.8203 39.1924
rfemur -24.9526 11.3977 6.70448
rtibia 45.5338
rfoot -18.2358 -9.33262
rtoes -10.8931
lfemur 8.18177 14.328 -27.7383
ltibia 21.0565
lfoot -15.6551 -9.09263
ltoes 7.64208
678
root 4.46212 15.9924 -22.0692 185.018 -58.2153 -194.138
lowerback 0.122609 -2.44286 -0.961931
upperback 7.28085 -3.69746 1.85379
thorax 7.72683 -2.10046 2.21498
lowerneck -2.17484 -3.05842 -0.814053
upperneck 9.9837 -3.82828 -5.71835
head 3.51605 -2.26764 -1.89005
rclavicle 3.63776e-014 -2.06736e-014
rhumerus -23.7295 7.4548 -78.1336
rradius 79.7777
rwrist 9.48078
rhand -16.5022 -20.3463
rfingers 7.12502
rthumb 9.71569 -50.1022
lclavicle 3.63776e-014 -2.06736e-014
lhumerus -18.8177 6.27097 79.004
lradius 52.9904
lwrist 29.5341
lhand -14.3351 9.8496
lfingers 7.12502
lthumb 11.806 39.4968
rfemur -24.7326 11.0348 6.90184
rtibia 45.67
rfoot -18.4454 -9.60475
rtoes -10.4397
lfemur 8.16701 14.0422 -27.4258
ltibia 21.2242
lfoot -15.6936 -9.45365
ltoes 7.44355
679
root 4.4478 15.9907 -22.1269 185.157 -58.9354 -194.17
lowerback 0.122871 -2.40425 -1.03544
upperback 7.26432 -3.63435 1.82289
thorax 7.70789 -2.07023 2.2287
lowerneck -2.13648 -3.44616 -1.14622
upperneck 10.0134 -4.39807 -4.75755
head 3.52803 -2.51514 -1.53158
rclavicle 6.79844e-014 -4.92986e-014
rhumerus -23.8226 7.65976 -78.0824
rradius 79.4047
rwrist 8.73139
rhand -16.3163 -20.3904
rfingers 7.12502
rthumb 9.89501 -50.1378
lclavicle 6.79844e-014 -4.92986e-014
lhumerus -19.0989 5.88205 79.5734
lradius 52.5533
lwrist 29.3407
lhand -13.4042 10.3041
lfingers 7.12502
lthumb 12.7035 39.8977
rfemur -24.5032 10.6015 7.11566
rtibia 45.8103
rfoot -18.6226 -9.8206
rtoes -9.98691
lfemur 8.17238 13.7304 -27.0975
ltibia 21.3761
lfoot -15.7631 -9.81104
ltoes 7.29535
680
root 4.43359 15.9873 -22.1847 185.236 -59.6788 -194.152
lowerback 0.131741 -2.37471 -1.07472
upperback 7.26447 -3.58663 1.78868
thorax 7.70032 -2.04617 2.21871
lowerneck -2.07191 -3.83732 -1.49183
upperneck 10.007 -4.97723 -3.78987
head 3.53354 -2.76758 -1.17159
rclavicle -2.5842e-015 -2.06736e-014
rhumerus -23.8427 7.80629 -78.0122
rradius 78.9993
rwrist 7.9829
rhand -16.0658 -20.2681
rfingers 7.12502
rthumb 10.1367 -50.0039
lclavicle -2.5842e-015 -2.06736e-014
lhumerus -19.3873 5.57666 80.0922
lradius 52.0567
lwrist 29.2735
lhand -12.5872 10.8236
lfingers 7.12502
lthumb 13.4911 40.3666
rfemur -24.2631 10.1105 7.36165
rtibia 45.9496
rfoot -18.7583 -9.96432
rtoes -9.55796
lfemur 8.19699 13.394 -26.7445
ltibia 21.5185
lfoot -15.869 -10.146
ltoes 7.21606
681
root 4.41956 15.9828 -22.2423 185.235 -60.4392 -194.058
lowerback 0.150481 -2.35118 -1.0679
upperback 7.28256 -3.55112 1.75548
thorax 7.70421 -2.02621 2.18315
lowerneck -1.99907 -4.22986 -1.85468
upperneck 9.98168 -5.56165 -2.81523
head 3.5429 -3.02388 -0.809696
rclavicle -8.18993e-014 -1.59028e-015
rhumerus -23.7797 7.90644 -77.9329
rradius 78.578
rwrist 7.1462
rhand -15.8154 -20.2047
rfingers 7.12502
rthumb 10.3782 -49.9286
lclavicle -8.18993e-014 -1.59028e-015
lhumerus -19.6747 5.35044 80.563
lradius 51.4928
lwrist 29.323
lhand -11.9098 11.3669
lfingers 7.12502
lthumb 14.1439 40.8655
rfemur -24.0165 9.56993 7.64976
rtibia 46.0854
rfoot -18.8563 -10.0264
rtoes -9.13662
lfemur 8.23461 13.0269 -26.3638
ltibia 21.6545
lfoot -16.0138 -10.4336
ltoes 7.18362
682
root 4.4056 15.9772 -22.3001 185.159 -61.175 -193.901
lowerback 0.189134 -2.31973 -1.03061
upperback 7.31387 -3.50774 1.72085
thorax 7.70838 -2.0011 2.13021
lowerneck -1.92648 -4.62198 -2.22966
upperneck 9.95946 -6.14866 -1.83994
head 3.56565 -3.28349 -0.448741
rclavicle 4.87022e-014 1.59028e-015
rhumerus -23.6358 7.94683 -77.8483
rradius 78.1282
rwrist 6.20232
rhand -15.6103 -20.2051
rfingers 7.12502
rthumb 10.5761 -49.9189
lclavicle 4.87022e-014 1.59028e-015
lhumerus -19.9793 5.19961 80.9843
lradius 50.8628
lwrist 29.4477
lhand -11.3221 11.9095
lfingers 7.12502
lthumb 14.7102 41.3676
rfemur -23.7717 9.01259 7.96864
rtibia 46.2215
rfoot -18.9212 -10.0198
rtoes -8.74847
lfemur 8.29078 12.6608 -25.9682
ltibia 21.7825
lfoot -16.202 -10.6547
ltoes 7.14982
683
root 4.39152 15.9705 -22.358 185.041 -61.8805 -193.725
lowerback 0.247546 -2.28023 -0.9856
upperback 7.35896 -3.45477 1.67774
thorax 7.71455 -1.97111 2.06523
lowerneck -1.85654 -5.00822 -2.61399
upperneck 9.94811 -6.73119 -0.867544
head 3.60498 -3.54304 -0.089283
rclavicle 3.24019e-014 -1.59028e-015
rhumerus -23.4565 7.98622 -77.7536
rradius 77.6965
rwrist 5.09087
rhand -15.5471 -20.3554
rfingers 7.12502
rthumb 10.637 -50.0662
lclavicle 3.24019e-014 -1.59028e-015
lhumerus -20.3014 5.12073 81.3537
lradius 50.1603
lwrist 29.6183
lhand -10.8784 12.3659
lfingers 7.12502
lthumb 15.1376 41.7923
rfemur -23.5237 8.44537 8.2939
rtibia 46.3621
rfoot -18.9692 -9.97619
rtoes -8.42409
lfemur 8.37362 12.2967 -25.5822
ltibia 21.8956
lfoot -16.424 -10.806
ltoes 7.11781
684
root 4.37824 15.9638 -22.4164 184.939 -62.5728 -193.575
lowerback 0.32526 -2.23917 -0.960658
upperback 7.40719 -3.39849 1.6234
thorax 7.71338 -1.94049 2.0006
lowerneck -1.78186 -5.38367 -3.00001
upperneck 9.94958 -7.30319 0.0930375
head 3.65925 -3.79965 0.266042
rclavicle 5.22804e-014 -2.22639e-014
rhumerus -23.2016 7.98237 -77.6621
rradius 77.2332
rwrist 3.85652
rhand -15.6322 -20.6056
rfingers 7.12502
rthumb 10.5549 -50.3205
lclavicle 5.22804e-014 -2.22639e-014
lhumerus -20.6423 5.11513 81.6672
lradius 49.3835
lwrist 29.8094
lhand -10.5905 12.7281
lfingers 7.12502
lthumb 15.415 42.1334
rfemur -23.2838 7.86008 8.60333
rtibia 46.5101
rfoot -19.0227 -9.92028
rtoes -8.17303
lfemur 8.46671 11.9197 -25.226
ltibia 21.9843
lfoot -16.6507 -10.8933
ltoes 7.09969
